<svg aria-hidden="true" style="position: absolute; width: 0; height: 0; overflow: hidden;" version="1.1" xmlns="http://www.w3.org/2000/svg" xmlns:xlink="http://www.w3.org/1999/xlink">
<defs>
<symbol id="icon-plus" viewBox="0 0 32 32">
<path fill="#fff" style="fill: var(--color1, #fff)" d="M30.4 14.4h-12.8v-12.8c0-0.883-0.717-1.6-1.6-1.6s-1.6 0.717-1.6 1.6v12.8h-12.8c-0.883 0-1.6 0.717-1.6 1.6s0.717 1.6 1.6 1.6h12.8v12.8c0 0.883 0.717 1.6 1.6 1.6s1.6-0.717 1.6-1.6v-12.8h12.8c0.883 0 1.6-0.717 1.6-1.6s-0.717-1.6-1.6-1.6z"></path>
</symbol>
<symbol id="icon-open-book" viewBox="0 0 37 32">
<path fill="#a6abb9" style="fill: var(--color2, #a6abb9)" d="M33.684 0.897c-1.869-0.628-3.924-0.897-5.895-0.897-3.284 0-6.821 0.717-9.263 2.69-2.442-1.973-5.979-2.69-9.263-2.69s-6.821 0.717-9.263 2.69v26.273c0 0.448 0.421 0.897 0.842 0.897 0.168 0 0.253-0.090 0.421-0.090 2.274-1.166 5.558-1.973 8-1.973 3.284 0 6.821 0.717 9.263 2.69 2.274-1.524 6.4-2.69 9.263-2.69 2.779 0 5.642 0.538 8 1.883 0.168 0.090 0.253 0.090 0.421 0.090 0.421 0 0.842-0.448 0.842-0.897v-26.183c-1.011-0.807-2.105-1.345-3.368-1.793zM33.684 25.107c-1.853-0.628-3.874-0.897-5.895-0.897-2.863 0-6.989 1.166-9.263 2.69v-20.624c2.274-1.524 6.4-2.69 9.263-2.69 2.021 0 4.042 0.269 5.895 0.897v20.624z"></path>
<path fill="#a6abb9" style="fill: var(--color2, #a6abb9)" d="M27.789 10.76c1.482 0 2.914 0.161 4.211 0.466v-2.726c-1.331-0.269-2.762-0.43-4.211-0.43-2.863 0-5.457 0.52-7.579 1.489v2.977c1.903-1.148 4.547-1.775 7.579-1.775z"></path>
<path fill="#a6abb9" style="fill: var(--color2, #a6abb9)" d="M20.211 14.329v2.977c1.903-1.148 4.547-1.776 7.579-1.776 1.482 0 2.914 0.161 4.211 0.466v-2.726c-1.331-0.269-2.762-0.43-4.211-0.43-2.863 0-5.457 0.538-7.579 1.489z"></path>
<path fill="#a6abb9" style="fill: var(--color2, #a6abb9)" d="M27.789 17.629c-2.863 0-5.457 0.52-7.579 1.488v2.977c1.903-1.148 4.547-1.776 7.579-1.776 1.482 0 2.914 0.161 4.211 0.466v-2.726c-1.331-0.287-2.762-0.43-4.211-0.43z"></path>
</symbol>
<symbol id="flag-ua" viewBox="0 0 21 14">
<path fill="#005BBB" d="M0 0h21v14H0z"/><path fill="#FFD500" d="M0 7h21v14H0z"/>
</symbol>
<symbol id="flag-pl" viewBox="0 0 21 14">
<path fill="#fff" d="M0 0h21v14H0z"/><path fill="#dc143c" d="M0 7h21v14H0z"/>
</symbol>
<symbol id="flag-en" viewBox="0 0 21 14">
<path d="M 10.5 7 L 21 7 L 21 14 Z M 10.5 7 L 10.5 14 L 0 14 Z M 10.5 7 L 0 7 L 0 0 Z M 10.5 7 L 10.5 0 L 21 0 Z M 10.5 7 "/>
<rect x="0" y="0" width="21" height="14" style="fill:rgb(0.392157%,12.941176%,41.176471%);fill-opacity:1;stroke:none;"/>
<path style="fill-rule:nonzero;fill:rgb(0%,0%,0%);fill-opacity:1;stroke-width:6;stroke-linecap:butt;stroke-linejoin:miter;stroke:rgb(100%,100%,100%);stroke-opacity:1;stroke-miterlimit:4;" d="M 0 0 L 60 30 M 60 0 L 0 30 " transform="matrix(0.35,0,0,0.466667,0,0)"/>
<path style="fill-rule:nonzero;fill:rgb(0%,0%,0%);fill-opacity:1;stroke-width:4;stroke-linecap:butt;stroke-linejoin:miter;stroke:rgb(78.431373%,6.27451%,18.039216%);stroke-opacity:1;stroke-miterlimit:4;" d="M 0 0 L 60 30 M 60 0 L 0 30 " transform="matrix(0.35,0,0,0.466667,0,0)"/>
<path style="fill-rule:nonzero;fill:rgb(0%,0%,0%);fill-opacity:1;stroke-width:10;stroke-linecap:butt;stroke-linejoin:miter;stroke:rgb(100%,100%,100%);stroke-opacity:1;stroke-miterlimit:4;" d="M 30 0 L 30 30 M 0 15 L 60 15 " transform="matrix(0.35,0,0,0.466667,0,0)"/>
<path style="fill-rule:nonzero;fill:rgb(0%,0%,0%);fill-opacity:1;stroke-width:6;stroke-linecap:butt;stroke-linejoin:miter;stroke:rgb(78.431373%,6.27451%,18.039216%);stroke-opacity:1;stroke-miterlimit:4;" d="M 30 0 L 30 30 M 0 15 L 60 15 " transform="matrix(0.35,0,0,0.466667,0,0)"/>
</symbol>
</defs>
</svg>
