<svg width="22" height="19" viewBox="0 0 22 19"  xmlns="http://www.w3.org/2000/svg">
<path d="M20 0.532407C18.89 0.159722 17.67 0 16.5 0C14.55 0 12.45 0.425926 11 1.59722C9.55 0.425926 7.45 0 5.5 0C3.55 0 1.45 0.425926 0 1.59722V17.1968C0 17.463 0.25 17.7292 0.5 17.7292C0.6 17.7292 0.65 17.6759 0.75 17.6759C2.1 16.9838 4.05 16.5046 5.5 16.5046C7.45 16.5046 9.55 16.9306 11 18.1019C12.35 17.1968 14.8 16.5046 16.5 16.5046C18.15 16.5046 19.85 16.8241 21.25 17.6227C21.35 17.6759 21.4 17.6759 21.5 17.6759C21.75 17.6759 22 17.4097 22 17.1435V1.59722C21.4 1.11806 20.75 0.798611 20 0.532407ZM20 14.9074C18.9 14.5347 17.7 14.375 16.5 14.375C14.8 14.375 12.35 15.0671 11 15.9722V3.72685C12.35 2.82176 14.8 2.12963 16.5 2.12963C17.7 2.12963 18.9 2.28935 20 2.66204V14.9074Z" fill="#A6ABB9"/>
<path d="M16.5 6.38897C17.38 6.38897 18.23 6.4848 19 6.66582V5.0473C18.21 4.88758 17.36 4.79175 16.5 4.79175C14.8 4.79175 13.26 5.10054 12 5.67554V7.44314C13.13 6.76165 14.7 6.38897 16.5 6.38897Z" fill="#A6ABB9"/>
<path d="M12 8.50806V10.2757C13.13 9.59418 14.7 9.22149 16.5 9.22149C17.38 9.22149 18.23 9.31732 19 9.49834V7.87982C18.21 7.7201 17.36 7.62427 16.5 7.62427C14.8 7.62427 13.26 7.94371 12 8.50806Z" fill="#A6ABB9"/>
<path d="M16.5 10.4673C14.8 10.4673 13.26 10.7761 12 11.3511V13.1187C13.13 12.4372 14.7 12.0645 16.5 12.0645C17.38 12.0645 18.23 12.1603 19 12.3414V10.7228C18.21 10.5525 17.36 10.4673 16.5 10.4673Z" fill="#A6ABB9"/>
</svg>
