<svg aria-hidden="true" style="position: absolute; width: 0; height: 0; overflow: hidden;" version="1.1" xmlns="http://www.w3.org/2000/svg" xmlns:xlink="http://www.w3.org/1999/xlink">
<defs>
<symbol id="icon-plus" viewBox="0 0 32 32">
<path fill="#fff" style="fill: var(--color1, #fff)" d="M30.4 14.4h-12.8v-12.8c0-0.883-0.717-1.6-1.6-1.6s-1.6 0.717-1.6 1.6v12.8h-12.8c-0.883 0-1.6 0.717-1.6 1.6s0.717 1.6 1.6 1.6h12.8v12.8c0 0.883 0.717 1.6 1.6 1.6s1.6-0.717 1.6-1.6v-12.8h12.8c0.883 0 1.6-0.717 1.6-1.6s-0.717-1.6-1.6-1.6z"></path>
</symbol>
<symbol id="icon-open-book" viewBox="0 0 37 32">
<path d="M33.684 0.897c-1.869-0.628-3.924-0.897-5.895-0.897-3.284 0-6.821 0.717-9.263 2.69-2.442-1.973-5.979-2.69-9.263-2.69s-6.821 0.717-9.263 2.69v26.273c0 0.448 0.421 0.897 0.842 0.897 0.168 0 0.253-0.090 0.421-0.090 2.274-1.166 5.558-1.973 8-1.973 3.284 0 6.821 0.717 9.263 2.69 2.274-1.524 6.4-2.69 9.263-2.69 2.779 0 5.642 0.538 8 1.883 0.168 0.090 0.253 0.090 0.421 0.090 0.421 0 0.842-0.448 0.842-0.897v-26.183c-1.011-0.807-2.105-1.345-3.368-1.793zM33.684 25.107c-1.853-0.628-3.874-0.897-5.895-0.897-2.863 0-6.989 1.166-9.263 2.69v-20.624c2.274-1.524 6.4-2.69 9.263-2.69 2.021 0 4.042 0.269 5.895 0.897v20.624z"></path>
<path d="M27.789 10.76c1.482 0 2.914 0.161 4.211 0.466v-2.726c-1.331-0.269-2.762-0.43-4.211-0.43-2.863 0-5.457 0.52-7.579 1.489v2.977c1.903-1.148 4.547-1.775 7.579-1.775z"></path>
<path d="M20.211 14.329v2.977c1.903-1.148 4.547-1.776 7.579-1.776 1.482 0 2.914 0.161 4.211 0.466v-2.726c-1.331-0.269-2.762-0.43-4.211-0.43-2.863 0-5.457 0.538-7.579 1.489z"></path>
<path d="M27.789 17.629c-2.863 0-5.457 0.52-7.579 1.488v2.977c1.903-1.148 4.547-1.776 7.579-1.776 1.482 0 2.914 0.161 4.211 0.466v-2.726c-1.331-0.287-2.762-0.43-4.211-0.43z"></path>
</symbol>
<symbol id="icon-eye" viewBox="0 0 43 32">
<path d="M18.426 3.716c-3.613 0.465-9.703 3.51-14.090 7.019-5.058 4.077-5.058 6.452 0 10.529 9.135 7.329 17.806 9.032 26.168 5.161 4.697-2.219 11.045-6.968 11.819-8.877 1.032-2.477-0.052-4.232-4.542-7.535-7.329-5.316-12.852-7.123-19.355-6.297zM28.077 5.935c1.91 0.671 3.923 1.6 4.387 2.013 0.516 0.465 1.084 0.826 1.29 0.826s1.342 0.774 2.529 1.652c6.761 5.213 6.761 5.935 0 11.148-1.187 0.877-2.323 1.652-2.529 1.652s-0.774 0.361-1.29 0.826c-1.445 1.29-7.742 3.303-10.581 3.303-3.2 0-7.277-1.187-11.148-3.2-3.252-1.755-9.187-6.968-9.187-8.155 0-0.981 5.265-5.884 8.206-7.639 3.561-2.065 8.723-3.665 11.923-3.716 1.703 0 4.284 0.516 6.4 1.29z"></path>
<path d="M18.839 10.013c-2.735 1.187-3.613 2.684-3.613 5.987 0 2.477 0.206 3.252 1.239 4.335 2.477 2.632 6.348 2.942 9.342 0.826 1.703-1.239 2.477-3.148 2.323-5.832-0.206-2.477-1.29-4.129-3.51-5.213-2.168-0.981-3.716-1.032-5.781-0.103z"></path>
</symbol>
<symbol id="icon-noeye" viewBox="0 0 43 32">
<path d="M21.213 15.69c-9.755 9.755-14.916 15.277-14.503 15.535 0.31 0.206 1.187-0.155 1.961-0.826 3.716-3.303 29.006-28.852 29.006-29.316 0-0.31-0.31-0.568-0.671-0.568-0.31 0-7.432 6.813-15.794 15.174z"></path>
<path d="M18.942 4.232c-5.832 0.774-16.258 7.071-17.394 10.529-0.929 2.735-0.103 3.871 5.832 8 1.858 1.29 3.252 1.91 3.51 1.652 0.31-0.31-0.568-1.187-2.219-2.219-4.335-2.839-6.090-4.594-6.090-6.142 0-2.219 4.181-5.626 10.684-8.723 3.665-1.755 4.439-1.91 8.413-1.91 2.426 0 5.161 0.206 6.090 0.413 1.032 0.31 1.652 0.258 1.652-0.052 0-1.29-5.987-2.168-10.477-1.548z"></path>
<path d="M33.29 7.69c-0.155 0.31 1.084 1.445 2.735 2.581 2.942 2.013 5.781 4.8 5.781 5.729 0 0.981-3.252 4.129-6.4 6.194-6.194 4.026-12.852 5.523-18.065 4.077-1.342-0.361-2.168-0.361-2.477-0.052-0.826 0.826 3.355 1.755 7.639 1.755 5.626-0.052 12.852-3.303 18.065-8.155 3.716-3.406 3.148-5.677-2.529-9.652-4.181-2.942-4.387-3.045-4.748-2.477z"></path>
<path d="M19.768 9.858c-2.942 0.877-4.955 4.852-3.923 7.948 0.413 1.29 0.516 1.239 4.8-3.097 2.374-2.374 4.232-4.439 4.077-4.594-0.568-0.516-3.458-0.671-4.955-0.258z"></path>
<path d="M23.277 17.755l-4.284 4.284 1.806 0.361c4.077 0.774 7.587-2.219 7.587-6.452 0-1.394-0.155-2.529-0.413-2.529-0.206 0-2.323 1.961-4.697 4.335z"></path>
</symbol>
<symbol id="flag-ua" viewBox="0 0 21 14">
<path fill="#005BBB" d="M0 0h21v14H0z"/><path fill="#FFD500" d="M0 7h21v14H0z"/>
</symbol>
<symbol id="flag-pl" viewBox="0 0 21 14">
<path fill="#fff" d="M0 0h21v14H0z"/><path fill="#dc143c" d="M0 7h21v14H0z"/>
</symbol>
<symbol id="flag-en" viewBox="0 0 21 14">
<path d="M 10.5 7 L 21 7 L 21 14 Z M 10.5 7 L 10.5 14 L 0 14 Z M 10.5 7 L 0 7 L 0 0 Z M 10.5 7 L 10.5 0 L 21 0 Z M 10.5 7 "/>
<rect x="0" y="0" width="21" height="14" style="fill:rgb(0.392157%,12.941176%,41.176471%);fill-opacity:1;stroke:none;"/>
<path style="fill-rule:nonzero;fill:rgb(0%,0%,0%);fill-opacity:1;stroke-width:6;stroke-linecap:butt;stroke-linejoin:miter;stroke:rgb(100%,100%,100%);stroke-opacity:1;stroke-miterlimit:4;" d="M 0 0 L 60 30 M 60 0 L 0 30 " transform="matrix(0.35,0,0,0.466667,0,0)"/>
<path style="fill-rule:nonzero;fill:rgb(0%,0%,0%);fill-opacity:1;stroke-width:4;stroke-linecap:butt;stroke-linejoin:miter;stroke:rgb(78.431373%,6.27451%,18.039216%);stroke-opacity:1;stroke-miterlimit:4;" d="M 0 0 L 60 30 M 60 0 L 0 30 " transform="matrix(0.35,0,0,0.466667,0,0)"/>
<path style="fill-rule:nonzero;fill:rgb(0%,0%,0%);fill-opacity:1;stroke-width:10;stroke-linecap:butt;stroke-linejoin:miter;stroke:rgb(100%,100%,100%);stroke-opacity:1;stroke-miterlimit:4;" d="M 30 0 L 30 30 M 0 15 L 60 15 " transform="matrix(0.35,0,0,0.466667,0,0)"/>
<path style="fill-rule:nonzero;fill:rgb(0%,0%,0%);fill-opacity:1;stroke-width:6;stroke-linecap:butt;stroke-linejoin:miter;stroke:rgb(78.431373%,6.27451%,18.039216%);stroke-opacity:1;stroke-miterlimit:4;" d="M 30 0 L 30 30 M 0 15 L 60 15 " transform="matrix(0.35,0,0,0.466667,0,0)"/>
</symbol>
</defs>
</svg>
